<svg width="18" height="18" viewBox="0 0 18 18" fill="none" xmlns="http://www.w3.org/2000/svg">
<path d="M9 0C7.21997 0 5.47991 0.527841 3.99987 1.51677C2.51983 2.50571 1.36628 3.91131 0.685088 5.55585C0.00389957 7.20038 -0.17433 9.00998 0.172936 10.7558C0.520203 12.5016 1.37737 14.1053 2.63604 15.364C3.89471 16.6226 5.49836 17.4798 7.24419 17.8271C8.99002 18.1743 10.7996 17.9961 12.4442 17.3149C14.0887 16.6337 15.4943 15.4802 16.4832 14.0001C17.4722 12.5201 18 10.78 18 9C18 6.61305 17.0518 4.32387 15.364 2.63604C13.6761 0.948211 11.387 0 9 0ZM9 16.7143C7.47426 16.7143 5.98278 16.2618 4.71418 15.4142C3.44557 14.5665 2.45681 13.3617 1.87293 11.9521C1.28906 10.5425 1.13629 8.99144 1.43395 7.49502C1.7316 5.99859 2.46632 4.62404 3.54518 3.54518C4.62404 2.46631 5.9986 1.7316 7.49502 1.43394C8.99144 1.13628 10.5425 1.28905 11.9521 1.87293C13.3617 2.4568 14.5665 3.44556 15.4142 4.71417C16.2619 5.98278 16.7143 7.47426 16.7143 9C16.7143 11.046 15.9015 13.0081 14.4548 14.4548C13.0081 15.9015 11.046 16.7143 9 16.7143Z" fill="#B2BECB"/>
</svg>
