<svg width="23" height="23" viewBox="0 0 23 23" fill="none" xmlns="http://www.w3.org/2000/svg">
<path d="M22.8004 20.3424C22.8004 20.9941 22.5415 21.6192 22.0807 22.0801C21.6199 22.5409 20.9948 22.7999 20.3431 22.8H2.45724C1.80551 22.7999 1.1805 22.5409 0.719688 22.0801C0.258876 21.6192 -6.89237e-09 20.9941 0 20.3424L0 2.45724C0.000284155 1.80563 0.259263 1.18078 0.720024 0.720024C1.18078 0.259263 1.80563 0.000284155 2.45724 0L20.3431 0C20.9948 0.000189486 21.6197 0.259138 22.0804 0.719919C22.5412 1.1807 22.8002 1.8056 22.8004 2.45724V20.3424Z" fill="#EFC22D"/>
<path d="M19.253 5.05388C18.9176 4.76739 18.4821 4.6258 18.0423 4.66025C17.6025 4.6947 17.1944 4.90236 16.9076 5.23759L9.745 13.6144L5.89168 10.3976C5.73914 10.2664 5.56203 10.1668 5.37066 10.1046C5.17928 10.0425 4.97746 10.019 4.77692 10.0355C4.57638 10.052 4.38112 10.1082 4.2025 10.2009C4.02387 10.2935 3.86545 10.4207 3.73643 10.5751C3.60741 10.7296 3.51037 10.9081 3.45095 11.1003C3.39153 11.2926 3.37092 11.4947 3.39031 11.695C3.4097 11.8953 3.46871 12.0897 3.5639 12.267C3.6591 12.4443 3.78859 12.6008 3.94483 12.7276L9.10737 17.0381C9.26655 17.1708 9.45137 17.2693 9.65029 17.3275C9.84922 17.3857 10.058 17.4022 10.2636 17.3762C10.4817 17.3593 10.6943 17.2997 10.8892 17.2006C11.0842 17.1014 11.2577 16.9649 11.3998 16.7986L19.4357 7.39854C19.7218 7.06293 19.8632 6.62749 19.8287 6.18778C19.7942 5.74808 19.5866 5.34002 19.2516 5.05316" fill="#F4F4F4"/>
</svg>
