<svg width="18" height="18" viewBox="0 0 18 18" fill="none" xmlns="http://www.w3.org/2000/svg">
<circle cx="9" cy="9" r="9" fill="#05C7A4"/>
<path fill-rule="evenodd" clip-rule="evenodd" d="M11.97 5.97001C12.1099 5.83128 12.2989 5.7532 12.4959 5.75266C12.693 5.75211 12.8823 5.82915 13.023 5.9671C13.1637 6.10505 13.2445 6.29285 13.2479 6.48987C13.2512 6.6869 13.1769 6.87734 13.041 7.02001L9.04897 12.01C8.98037 12.0839 8.89756 12.1432 8.80551 12.1844C8.71345 12.2255 8.61405 12.2477 8.51323 12.2496C8.41241 12.2514 8.31224 12.233 8.21873 12.1952C8.12522 12.1575 8.04027 12.1013 7.96897 12.03L5.32397 9.38401C5.25029 9.31534 5.19119 9.23254 5.15019 9.14054C5.1092 9.04854 5.08716 8.94923 5.08538 8.84853C5.08361 8.74783 5.10213 8.6478 5.13985 8.55441C5.17757 8.46102 5.23372 8.37619 5.30494 8.30497C5.37616 8.23375 5.46099 8.1776 5.55438 8.13988C5.64777 8.10216 5.74779 8.08364 5.8485 8.08541C5.9492 8.08719 6.04851 8.10923 6.14051 8.15022C6.23251 8.19122 6.31531 8.25032 6.38397 8.32401L8.47797 10.417L11.951 5.99201C11.9572 5.98426 11.9639 5.97691 11.971 5.97001H11.97Z" fill="white"/>
</svg>
